<?xml version="1.0" encoding="UTF-8" standalone="no"?>
<svg
   height="28.847361"
   width="28.898365"
   viewBox="-11.493675 -16.3118 2.3988497 3.5291428"
   version="1.1"
   id="svg6"
   sodipodi:docname="LinkedIn-Icon-Logo.wine.svg"
   inkscape:version="1.1.2 (76b9e6a115, 2022-02-25)"
   xmlns:inkscape="http://www.inkscape.org/namespaces/inkscape"
   xmlns:sodipodi="http://sodipodi.sourceforge.net/DTD/sodipodi-0.dtd"
   xmlns="http://www.w3.org/2000/svg"
   xmlns:svg="http://www.w3.org/2000/svg">
  <defs
     id="defs10" />
  <sodipodi:namedview
     id="namedview8"
     pagecolor="#ffffff"
     bordercolor="#666666"
     borderopacity="1.0"
     inkscape:pageshadow="2"
     inkscape:pageopacity="0.0"
     inkscape:pagecheckerboard="0"
     showgrid="false"
     inkscape:zoom="8.44"
     inkscape:cx="52.42891"
     inkscape:cy="8.471564"
     inkscape:window-width="1920"
     inkscape:window-height="1016"
     inkscape:window-x="0"
     inkscape:window-y="27"
     inkscape:window-maximized="1"
     inkscape:current-layer="svg6" />
  <path
     fill="#0a66c2"
     d="m -8.5269289,-12.782657 h -0.731807 v -1.146042 c 0,-0.273284 -0.0048,-0.625085 -0.380616,-0.625085 -0.3811501,0 -0.4394661,0.297754 -0.4394661,0.605189 v 1.165861 h -0.731807 v -2.356724 h 0.702534 v 0.322071 h 0.0099 c 0.1432511,-0.244931 0.4096081,-0.391218 0.6931581,-0.380693 0.741718,0 0.878474,0.487872 0.878474,1.122562 z m -3.1094191,-2.67895 c -0.378374,6.8e-5 -0.567877,-0.457333 -0.300407,-0.724899 0.26747,-0.267566 0.72494,-0.07823 0.725007,0.300146 4.3e-5,0.234543 -0.190058,0.424712 -0.4246,0.424753 m 0.365904,2.67895 h -0.732571 v -2.356801 h 0.732571 z"
     id="path2"
     sodipodi:nodetypes="ccsssccccccccccsscccccc"
     style="stroke-width:0.07623" />
</svg>
