<?xml version="1.0" encoding="UTF-8" standalone="no"?>
<!-- Generator: Adobe Illustrator 19.1.0, SVG Export Plug-In . SVG Version: 6.00 Build 0)  -->

<svg
   version="1.1"
   id="Layer_1"
   x="0px"
   y="0px"
   viewBox="0 0 30.185005 30.185005"
   xml:space="preserve"
   sodipodi:docname="ORCID_iD.svg"
   width="30.185005"
   height="30.185005"
   inkscape:version="1.1.2 (76b9e6a115, 2022-02-25)"
   xmlns:inkscape="http://www.inkscape.org/namespaces/inkscape"
   xmlns:sodipodi="http://sodipodi.sourceforge.net/DTD/sodipodi-0.dtd"
   xmlns="http://www.w3.org/2000/svg"
   xmlns:svg="http://www.w3.org/2000/svg"><defs
   id="defs17" /><sodipodi:namedview
   id="namedview15"
   pagecolor="#ffffff"
   bordercolor="#666666"
   borderopacity="1.0"
   inkscape:pageshadow="2"
   inkscape:pageopacity="0.0"
   inkscape:pagecheckerboard="0"
   showgrid="false"
   inkscape:zoom="2.3312427"
   inkscape:cx="148.63318"
   inkscape:cy="169.22305"
   inkscape:window-width="1920"
   inkscape:window-height="1016"
   inkscape:window-x="0"
   inkscape:window-y="27"
   inkscape:window-maximized="1"
   inkscape:current-layer="Layer_1" />
<style
   type="text/css"
   id="style2">
	.st0{fill:#A6CE39;}
	.st1{fill:#FFFFFF;}
</style>
<path
   class="st0"
   d="m 30.185006,15.092503 c 0,8.336249 -6.756254,15.092503 -15.092503,15.092503 -8.3362498,0 -15.092503,-6.756254 -15.092503,-15.092503 0,-8.3362498 6.7562532,-15.092503 15.092503,-15.092503 8.336249,0 15.092503,6.7562532 15.092503,15.092503 z"
   id="path4"
   style="stroke-width:0.11791" />
<g
   id="g12"
   transform="scale(0.11791018)">
	<path
   class="st1"
   d="m 86.3,186.2 h -15.4 v -107.1 h 15.4 v 48.4 z"
   id="path6" />
	<path
   class="st1"
   d="m 108.9,79.1 h 41.6 c 39.6,0 57,28.3 57,53.6 0,27.5 -21.5,53.6 -56.8,53.6 h -41.8 z m 15.4,93.3 h 24.5 c 34.9,0 42.9,-26.5 42.9,-39.7 0,-21.5 -13.7,-39.7 -43.7,-39.7 h -23.7 z"
   id="path8" />
	<path
   class="st1"
   d="m 88.7,56.8 c 0,5.5 -4.5,10.1 -10.1,10.1 -5.6,0 -10.1,-4.6 -10.1,-10.1 0,-5.6 4.5,-10.1 10.1,-10.1 5.6,0 10.1,4.6 10.1,10.1 z"
   id="path10" />
</g>
</svg>
