<?xml version="1.0" encoding="UTF-8" standalone="no"?>
<!-- Creator: CorelDRAW -->

<svg
   xml:space="preserve"
   width="32px"
   height="32px"
   version="1.1"
   style="shape-rendering:geometricPrecision; text-rendering:geometricPrecision; image-rendering:optimizeQuality; fill-rule:evenodd; clip-rule:evenodd"
   viewBox="0 0 32 32"
   id="svg12"
   sodipodi:docname="ResearchGate_icon_SVG.svg"
   inkscape:version="1.1.2 (76b9e6a115, 2022-02-25)"
   xmlns:inkscape="http://www.inkscape.org/namespaces/inkscape"
   xmlns:sodipodi="http://sodipodi.sourceforge.net/DTD/sodipodi-0.dtd"
   xmlns="http://www.w3.org/2000/svg"
   xmlns:svg="http://www.w3.org/2000/svg"><sodipodi:namedview
   id="namedview14"
   pagecolor="#ffffff"
   bordercolor="#666666"
   borderopacity="1.0"
   inkscape:pageshadow="2"
   inkscape:pageopacity="0.0"
   inkscape:pagecheckerboard="0"
   showgrid="false"
   inkscape:zoom="13.1875"
   inkscape:cx="1.7440758"
   inkscape:cy="25.440758"
   inkscape:window-width="1920"
   inkscape:window-height="1016"
   inkscape:window-x="0"
   inkscape:window-y="27"
   inkscape:window-maximized="1"
   inkscape:current-layer="Capa_x0020_1" />
 <defs
   id="defs4">
  <style
   type="text/css"
   id="style2">
   <![CDATA[
    .fil0 {fill:#04D4AC;fill-rule:nonzero}
    .fil1 {fill:white;fill-rule:nonzero}
   ]]>
  </style>
 </defs>
 <g
   id="Capa_x0020_1"
   inkscape:label="Capa 1">
  <metadata
   id="CorelCorpID_0Corel-Layer" />
  <path
   class="fil0"
   d="m 30.736404,16 c 0,8.140897 -6.604706,14.745602 -14.736404,14.745602 -8.1408971,0 -14.7364035,-6.604705 -14.7364035,-14.745602 0,-8.1408968 6.5955064,-14.745602 14.7364035,-14.745602 8.131698,0 14.736404,6.6047052 14.736404,14.745602 z m -13.604958,6.439128 c -1.315422,-0.257565 -2.097316,-1.021062 -4.093445,-3.983061 -0.66231,-0.993465 -0.66231,-0.993465 -1.306223,-1.039459 -0.947471,-0.06439 -0.873881,-0.229969 -0.846285,1.858149 0.03679,2.373278 0.0092,2.318085 1.379812,2.548054 0.358752,0.05519 0.386348,0.08279 0.386348,0.29436 0,0.239168 0,0.239168 -2.410073,0.257566 -2.2628933,0.0184 -2.4100733,0.0092 -2.4560671,-0.128783 -0.091988,-0.266764 0.045994,-0.395546 0.5427265,-0.487534 0.5611239,-0.101186 0.8554841,-0.331155 0.9290741,-0.717503 0.036795,-0.14718 0.045994,-2.134111 0.027596,-4.415402 -0.027596,-4.79255 0.027596,-4.507389 -0.8554841,-4.700563 -0.5519253,-0.119583 -0.7267016,-0.248366 -0.6531116,-0.469136 0.055193,-0.14718 0.1747764,-0.156379 2.6860362,-0.202373 3.734694,-0.07359 4.4338,0.04599 5.427264,0.929074 1.03946,0.929075 1.18664,2.345683 0.358752,3.532322 -0.36795,0.533528 -1.103851,1.10385 -1.674172,1.315422 -0.266764,0.101186 -0.487534,0.211571 -0.487534,0.248366 0,0.110385 0.846285,1.315422 1.370613,1.959335 1.398211,1.701769 2.152508,2.364079 2.934402,2.566452 0.487535,0.128782 0.625517,0.266764 0.487535,0.505931 -0.14718,0.248367 -0.88308,0.303559 -1.747764,0.128783 z m -3.523121,-6.098774 c 1.83975,-0.754298 1.977732,-3.283955 0.229968,-4.029054 -0.45074,-0.193174 -0.570323,-0.202373 -1.70177,-0.202373 -1.223434,0 -1.223434,0 -1.241831,2.124913 -0.0184,1.168241 -0.0092,2.180104 0.0184,2.235297 0.08279,0.193173 2.152508,0.09199 2.695236,-0.128783 z m 6.41153,-2.621645 c -1.425807,-0.266764 -1.894943,-1.140645 -1.821352,-3.385141 0.03679,-1.2418318 0.13798,-1.5821857 0.616315,-2.0973159 0.846286,-0.9106766 2.943602,-0.8278879 3.716298,0.14718 0.331154,0.413944 0.303557,0.5427265 -0.156379,0.6807078 -0.358752,0.1195838 -0.358752,0.1195838 -0.689908,-0.2115713 -0.781894,-0.7542978 -2.13411,-0.4783352 -2.373278,0.4967324 -0.119583,0.432342 -0.110385,2.262894 0.0092,2.676838 0.321956,1.168241 2.262893,1.168241 2.594048,0 0.202374,-0.745099 0.15638,-0.800292 -0.7359,-0.846286 -0.432341,-0.0184 -0.432341,-0.0184 -0.432341,-0.377149 0,-0.349552 0,-0.349552 1.030261,-0.377149 1.333819,-0.0276 1.315422,-0.04599 1.25103,0.929075 -0.08279,1.223434 -0.413944,1.812154 -1.214235,2.161707 -0.52433,0.22077 -1.241832,0.303559 -1.793757,0.202372 z"
   id="path7"
   style="stroke-width:0.919875" />
  <path
   class="fil1"
   d="m 17.726706,23.368663 c -1.315422,-0.257565 -2.097316,-1.021062 -4.093445,-3.983061 -0.66231,-0.993465 -0.66231,-0.993465 -1.306223,-1.039459 -0.947472,-0.06439 -0.873882,-0.229969 -0.846285,1.858149 0.03679,2.373278 0.0092,2.318085 1.379812,2.548054 0.358752,0.05519 0.386348,0.08279 0.386348,0.29436 0,0.239168 0,0.239168 -2.410073,0.257566 -2.2628934,0.0184 -2.4100734,0.0092 -2.4560672,-0.128783 -0.091988,-0.266764 0.045994,-0.395546 0.5427265,-0.487534 0.5611239,-0.101186 0.8554841,-0.331155 0.9290741,-0.717503 0.036795,-0.14718 0.045994,-2.134111 0.027596,-4.415402 -0.027596,-4.79255 0.027596,-4.507389 -0.8554841,-4.700563 -0.5519253,-0.119583 -0.7267016,-0.248366 -0.6531116,-0.469136 0.055193,-0.14718 0.1747764,-0.156379 2.6860363,-0.202373 3.734694,-0.07359 4.433799,0.04599 5.427264,0.929074 1.03946,0.929075 1.18664,2.345683 0.358752,3.532322 -0.36795,0.533528 -1.103851,1.10385 -1.674173,1.315422 -0.266764,0.101186 -0.487534,0.211571 -0.487534,0.248366 0,0.110385 0.846285,1.315422 1.370614,1.959335 1.398211,1.701769 2.152508,2.364079 2.934402,2.566452 0.487534,0.128782 0.625516,0.266764 0.487534,0.505931 -0.14718,0.248367 -0.88308,0.303559 -1.747763,0.128783 z m -3.523122,-6.098774 c 1.83975,-0.754298 1.977732,-3.283955 0.229968,-4.029054 -0.450739,-0.193174 -0.570322,-0.202373 -1.701769,-0.202373 -1.223434,0 -1.223434,0 -1.241831,2.124913 -0.0184,1.168241 -0.0092,2.180104 0.0184,2.235297 0.08279,0.193173 2.152507,0.09199 2.695235,-0.128783 z m 6.411531,-2.621645 c -1.425807,-0.266764 -1.894943,-1.140645 -1.821353,-3.385141 0.03679,-1.241831 0.137981,-1.5821852 0.616316,-2.0973154 0.846285,-0.9106766 2.943601,-0.8278879 3.716297,0.14718 0.331155,0.413944 0.303558,0.5427265 -0.156379,0.6807078 -0.358752,0.1195836 -0.358752,0.1195836 -0.689907,-0.2115713 -0.781894,-0.7542978 -2.134111,-0.4783352 -2.373278,0.4967319 -0.119584,0.432342 -0.110385,2.262894 0.0092,2.676838 0.321956,1.168241 2.262893,1.168241 2.594048,0 0.202373,-0.745099 0.156379,-0.800292 -0.7359,-0.846286 -0.432342,-0.0184 -0.432342,-0.0184 -0.432342,-0.377149 0,-0.349552 0,-0.349552 1.030261,-0.377149 1.333819,-0.0276 1.315422,-0.04599 1.25103,0.929075 -0.08279,1.223434 -0.413944,1.812154 -1.214235,2.161707 -0.524329,0.22077 -1.241832,0.303559 -1.793757,0.202372 z m 0,0 z"
   id="path9"
   style="stroke-width:0.919875" />
 </g>
</svg>
